<svg width="22" height="27" viewBox="0 0 22 27" fill="none" xmlns="http://www.w3.org/2000/svg">
<g opacity="0.3" clip-path="url(#clip0_2253_7879)">
<path d="M6.67839 17.6535C7.18465 17.6535 7.59505 17.2506 7.59505 16.7535C7.59505 16.2564 7.18465 15.8535 6.67839 15.8535C6.17213 15.8535 5.76172 16.2564 5.76172 16.7535C5.76172 17.2506 6.17213 17.6535 6.67839 17.6535Z" fill="black"/>
<path d="M11.262 16.7535C11.262 17.2506 10.8517 17.6535 10.3454 17.6535C9.8391 17.6535 9.42871 17.2506 9.42871 16.7535C9.42871 16.2564 9.8391 15.8535 10.3454 15.8535C10.8517 15.8535 11.262 16.2564 11.262 16.7535Z" fill="black"/>
<path d="M14.0124 17.6535C14.5186 17.6535 14.929 17.2506 14.929 16.7535C14.929 16.2564 14.5186 15.8535 14.0124 15.8535C13.5061 15.8535 13.0957 16.2564 13.0957 16.7535C13.0957 17.2506 13.5061 17.6535 14.0124 17.6535Z" fill="black"/>
<path fill-rule="evenodd" clip-rule="evenodd" d="M4.8457 9.5543V11.3543C3.32692 11.3543 2.0957 12.5631 2.0957 14.0543V19.4543C2.0957 20.9455 3.32692 22.1543 4.8457 22.1543H15.8457C17.3645 22.1543 18.5957 20.9455 18.5957 19.4543V14.0543C18.5957 12.5631 17.3645 11.3543 15.8457 11.3543V9.5543C15.8457 6.57196 13.3833 4.1543 10.3457 4.1543C7.30814 4.1543 4.8457 6.57196 4.8457 9.5543ZM4.8457 13.1543H15.8457C16.352 13.1543 16.7624 13.5572 16.7624 14.0543V19.4543C16.7624 19.9514 16.352 20.3543 15.8457 20.3543H4.8457C4.33945 20.3543 3.92904 19.9514 3.92904 19.4543V14.0543C3.92904 13.5572 4.33945 13.1543 4.8457 13.1543ZM14.0124 9.5543V11.3543H6.67904V9.5543C6.67904 7.56607 8.32066 5.9543 10.3457 5.9543C12.3707 5.9543 14.0124 7.56607 14.0124 9.5543Z" fill="black"/>
</g>
<defs>
<clipPath id="clip0_2253_7879">
<rect width="22" height="27" fill="white"/>
</clipPath>
</defs>
</svg>
