<svg width="78" height="61" viewBox="0 0 78 61" fill="none" xmlns="http://www.w3.org/2000/svg">
<path d="M21.6667 0C16.8865 0 13 3.90781 13 8.71429V39.2143C13 44.0208 16.8865 47.9286 21.6667 47.9286H69.3333C74.1135 47.9286 78 44.0208 78 39.2143V8.71429C78 3.90781 74.1135 0 69.3333 0H21.6667ZM53.625 14.5283L66.625 34.1355C67.2885 35.1431 67.3563 36.423 66.7875 37.485C66.2188 38.5471 65.1219 39.2143 63.9167 39.2143H44.4167H37.9167H27.0833C25.8375 39.2143 24.7 38.4926 24.1583 37.3625C23.6167 36.2324 23.7656 34.8844 24.551 33.904L33.2177 23.0112C33.8406 22.235 34.7615 21.7857 35.75 21.7857C36.7385 21.7857 37.6729 22.235 38.2823 23.0112L40.625 25.9522L48.2083 14.5147C48.8177 13.6161 49.8333 13.0714 50.9167 13.0714C52 13.0714 53.0156 13.6161 53.625 14.5283ZM26 13.0714C26 11.9158 26.4565 10.8076 27.2692 9.99046C28.0819 9.17334 29.1841 8.71429 30.3333 8.71429C31.4826 8.71429 32.5848 9.17334 33.3975 9.99046C34.2101 10.8076 34.6667 11.9158 34.6667 13.0714C34.6667 14.227 34.2101 15.3353 33.3975 16.1524C32.5848 16.9695 31.4826 17.4286 30.3333 17.4286C29.1841 17.4286 28.0819 16.9695 27.2692 16.1524C26.4565 15.3353 26 14.227 26 13.0714ZM6.5 11.9821C6.5 10.1712 5.05104 8.71429 3.25 8.71429C1.44896 8.71429 0 10.1712 0 11.9821V42.4821C0 52.7078 8.24688 61 18.4167 61H61.75C63.551 61 65 59.5431 65 57.7321C65 55.9212 63.551 54.4643 61.75 54.4643H18.4167C11.8354 54.4643 6.5 49.0996 6.5 42.4821V11.9821Z" fill="#143975"/>
</svg>
