<svg width="22" height="28" viewBox="0 0 22 28" fill="none" xmlns="http://www.w3.org/2000/svg">
<g opacity="0.3" clip-path="url(#clip0_2253_7865)">
<path d="M11.0004 3.7334C8.40826 3.73689 5.92324 4.7869 4.09029 6.65317C2.25735 8.51945 1.22609 11.0496 1.22266 13.689C1.223 16.3292 2.25327 18.8613 4.08688 20.7282C5.92049 22.5952 8.40731 23.6442 11.0004 23.6445C11.1838 23.6445 11.3671 23.6383 11.5504 23.6258C14.0432 23.4806 16.3872 22.3707 18.1026 20.5235C19.8181 18.6762 20.7752 16.2312 20.7782 13.689C20.7748 11.0496 19.7435 8.51945 17.9106 6.65317C16.0776 4.7869 13.5926 3.73689 11.0004 3.7334ZM17.8571 18.2436C15.9722 16.5247 13.5308 15.5742 11.0004 15.5742C8.47006 15.5742 6.02864 16.5247 4.14377 18.2436C3.26609 16.8931 2.80044 15.3084 2.80543 13.689C2.80543 11.476 3.66883 9.35366 5.20569 7.78886C6.74255 6.22405 8.82698 5.34495 11.0004 5.34495C13.1739 5.34495 15.2583 6.22405 16.7952 7.78886C18.332 9.35366 19.1954 11.476 19.1954 13.689C19.2004 15.3084 18.7348 16.8931 17.8571 18.2436Z" fill="black"/>
<path d="M14.4346 10.7273C14.4677 11.6904 14.1251 12.6277 13.4815 13.3342C12.8379 14.0408 11.9458 14.4592 11.0001 14.498C10.0544 14.4592 9.1623 14.0408 8.51873 13.3342C7.87515 12.6277 7.5325 11.6904 7.56568 10.7273C7.53267 9.76492 7.87556 8.82841 8.51927 8.12286C9.16297 7.4173 10.055 7.0002 11.0001 6.96289C11.9452 7.0002 12.8373 7.4173 13.481 8.12286C14.1247 8.82841 14.4676 9.76492 14.4346 10.7273Z" fill="black"/>
</g>
<defs>
<clipPath id="clip0_2253_7865">
<rect width="22" height="28" fill="white"/>
</clipPath>
</defs>
</svg>
