<svg width="19" height="20" viewBox="0 0 19 20" fill="none" xmlns="http://www.w3.org/2000/svg">
<g opacity="0.3">
<path d="M4.62257 6.36675L0.810314 4.22108C0.762484 4.19411 0.702088 4.1924 0.652231 4.21425C0.600752 4.23712 0.569946 4.28115 0.569946 4.32962V8.23048C0.569946 8.27383 0.596293 8.31411 0.638449 8.33732L4.45152 10.4844C4.47665 10.4984 4.50786 10.5062 4.53704 10.5062C4.56217 10.5062 4.58731 10.5014 4.61 10.4908C4.66027 10.4676 4.69229 10.4236 4.69229 10.3758V6.4753C4.69107 6.43195 4.66594 6.39099 4.62257 6.36675Z" fill="black"/>
<path d="M9.20472 13.7791L5.39247 11.6334C5.34464 11.6068 5.28424 11.6037 5.23438 11.6269C5.18412 11.6488 5.1521 11.6925 5.1521 11.741V15.6428C5.1521 15.6862 5.17845 15.7265 5.2206 15.7504L9.03367 17.8971C9.0588 17.9111 9.09001 17.9186 9.1192 17.9186C9.14433 17.9186 9.16946 17.9128 9.19216 17.9032C9.24242 17.8803 9.27323 17.8363 9.27323 17.7882V13.8877C9.27323 13.8446 9.2481 13.803 9.20472 13.7791Z" fill="black"/>
<path d="M18.357 4.49309C18.308 4.47022 18.2488 4.47125 18.201 4.49514L14.3875 6.44625C14.3421 6.4698 14.3137 6.51213 14.3137 6.55719V10.6543C14.3137 10.7021 14.3453 10.7461 14.3956 10.7676C14.4183 10.7782 14.4434 10.7837 14.4686 10.7837C14.4982 10.7837 14.529 10.7765 14.5537 10.7622L18.3672 8.61548C18.4093 8.59159 18.4357 8.55131 18.4357 8.50727V4.60642C18.4357 4.55897 18.4057 4.51596 18.357 4.49309Z" fill="black"/>
<path d="M8.9338 4.00241C8.93501 3.95565 8.90624 3.91127 8.85759 3.88738L5.27963 2.09841C5.23544 2.07519 5.17951 2.07451 5.13249 2.09363L1.14188 3.76245C1.09162 3.78395 1.05878 3.82628 1.05635 3.87304C1.0527 3.91878 1.08027 3.96418 1.12688 3.98876L4.6931 5.89959C4.71823 5.9129 4.7466 5.92007 4.77619 5.92007C4.80011 5.92007 4.82524 5.91495 4.84794 5.90471L8.85151 4.11505C8.90056 4.09218 8.93258 4.04883 8.9338 4.00241Z" fill="black"/>
<path d="M18.0261 4.14676C18.0249 4.09966 17.9945 4.05597 17.9442 4.03446L14.1762 2.34141C14.1308 2.32093 14.076 2.32093 14.0306 2.34243L10.299 4.04436C10.25 4.06689 10.2184 4.11024 10.2184 4.15871C10.2184 4.20548 10.2488 4.24985 10.2978 4.27272L14.0866 6.05282C14.1105 6.0634 14.1364 6.0692 14.1616 6.0692C14.1887 6.0692 14.2151 6.0634 14.239 6.05179L17.9487 4.26214C17.9981 4.2379 18.0273 4.19455 18.0261 4.14676Z" fill="black"/>
<path d="M13.7715 11.6271C13.7216 11.6038 13.6613 11.6066 13.613 11.6335L9.80116 13.7792C9.75779 13.8035 9.73145 13.8448 9.73145 13.8878V17.7886C9.73145 17.8368 9.76347 17.8808 9.81332 17.9037C9.83643 17.9132 9.86116 17.9194 9.88629 17.9194C9.91628 17.9194 9.94668 17.9112 9.97181 17.8975L13.7853 15.7508C13.8274 15.7269 13.8538 15.6866 13.8538 15.6433V11.7418C13.8538 11.6933 13.8218 11.6492 13.7715 11.6271Z" fill="black"/>
<path d="M13.4638 11.2868C13.465 11.24 13.4362 11.1957 13.3876 11.1718L9.6718 9.15853C9.62761 9.136 9.57168 9.13497 9.52506 9.15409L5.49108 11.1325C5.44123 11.154 5.40799 11.1963 5.40596 11.2431C5.40231 11.2892 5.42988 11.3342 5.47649 11.3592L9.37022 13.5065C9.39535 13.5199 9.42332 13.5267 9.45332 13.5267C9.47723 13.5267 9.50236 13.5219 9.52506 13.5113L13.3815 11.3991C13.4305 11.3769 13.4626 11.3336 13.4638 11.2868Z" fill="black"/>
<path d="M9.31214 4.49309C9.26309 4.47022 9.20391 4.47125 9.15608 4.49514L5.22587 6.27592C5.18047 6.29948 5.1521 6.34146 5.1521 6.38686V10.484C5.1521 10.5318 5.18372 10.5758 5.23398 10.5977C5.25668 10.6079 5.28181 10.6134 5.30694 10.6134C5.33653 10.6134 5.36693 10.6062 5.39206 10.5918L9.4001 8.75509C9.44226 8.7312 9.4686 8.69092 9.4686 8.64654L9.39118 4.60642C9.39118 4.55897 9.36159 4.51596 9.31214 4.49309Z" fill="black"/>
<path d="M13.8152 6.34431L10.0038 4.46761C9.95593 4.44099 9.89594 4.43757 9.84567 4.46078C9.79541 4.48297 9.76379 4.52666 9.76379 4.57479L9.80635 8.62106C9.80635 8.66441 9.8327 8.70435 9.87445 8.72824L13.6916 10.6899C13.7167 10.7039 13.7479 10.7118 13.7771 10.7118C13.8022 10.7118 13.8274 10.7056 13.8501 10.6964C13.9003 10.6732 13.9311 10.6295 13.9311 10.581V6.53648C13.9311 6.49313 13.8586 6.36786 13.8152 6.34431Z" fill="black"/>
</g>
</svg>
