<svg width="49" height="66" viewBox="0 0 49 66" fill="none" xmlns="http://www.w3.org/2000/svg">
<path d="M23.7426 32.7363C23.1491 32.7363 22.7657 32.7852 22.5391 32.8352V40.0793C22.7657 40.1282 23.1319 40.1282 23.4635 40.1282C25.8699 40.1444 27.4389 38.8956 27.4389 36.2507C27.4562 33.952 26.026 32.7363 23.7426 32.7363Z" fill="#143975"/>
<path d="M16.1707 34.2371C16.1707 33.2973 15.5925 32.7363 14.5688 32.7363C14.1517 32.7363 13.8685 32.782 13.7207 32.8276V35.8442C13.8952 35.8893 14.1107 35.9043 14.4072 35.9043C15.4975 35.9043 16.1707 35.2827 16.1707 34.2371Z" fill="#143975"/>
<path d="M33.5259 4.54288C32.158 3.07144 31.1883 2.63965 29.2546 2.63965H4.73363C2.03918 2.63965 0.980469 3.77849 0.980469 6.67685V59.3224C0.980469 62.2208 2.03918 63.3597 4.73363 63.3597H44.2673C46.9624 63.3597 48.0205 62.2208 48.0205 59.3224V22.825C48.0205 20.7443 47.6184 19.702 46.2511 18.2305L33.5259 4.54288ZM44.7377 58.7524C44.7377 59.5255 44.4555 59.8284 43.7367 59.8284H5.26424C4.54547 59.8284 4.26323 59.5248 4.26323 58.7524V45.6928H44.7377V58.7524ZM10.6023 42.4902V30.7173C11.3757 30.5756 12.462 30.4696 13.9924 30.4696C15.539 30.4696 16.6417 30.7888 17.3824 31.425C18.0899 32.0268 18.5672 33.0192 18.5672 34.1871C18.5672 35.3556 18.2053 36.3473 17.5473 37.0193C16.6918 37.8869 15.4243 38.2762 13.9428 38.2762C13.6142 38.2762 13.3175 38.258 13.0873 38.2229V42.4902H10.6023ZM20.164 42.4362V30.7173C21.0854 30.558 22.2865 30.4696 23.554 30.4696C25.6602 30.4696 27.0262 30.8771 28.0962 31.7441C29.2484 32.665 29.9722 34.1338 29.9722 36.2414C29.9722 38.5245 29.1988 40.1005 28.1288 41.0741C26.961 42.1184 25.1835 42.6143 23.0109 42.6143C21.7113 42.6137 20.7893 42.5253 20.164 42.4362ZM38.1201 35.4966V37.6913H34.1361V42.4902H31.6179V30.558H38.3986V32.7709H34.1361V35.4973L38.1201 35.4966ZM44.7377 27.3911H4.26323V7.24695C4.26323 6.47378 4.54547 6.17085 5.26424 6.17085H30.2557C30.6144 6.17085 30.7562 6.32265 30.7562 6.70856V17.1733C30.7562 20.0717 31.8149 21.2105 34.5087 21.2105H44.2372C44.5966 21.2105 44.7377 21.363 44.7377 21.7489V27.3911Z" fill="#143975"/>
</svg>
