<svg width="24" height="24" viewBox="0 0 24 24" fill="none" xmlns="http://www.w3.org/2000/svg">
<g id="Vector">
<path id="Vector_2" d="M24 12C24 18.6276 18.6275 24 12 24C5.3725 24 0 18.6275 0 12C0 5.3725 5.3725 0 12 0C18.6275 0 24 5.3725 24 12ZM1.33333 12C1.33333 17.891 6.10917 22.6669 12.0002 22.6669C17.8913 22.6669 22.6671 17.8911 22.6671 12C22.6671 6.10893 17.8913 1.3331 12.0002 1.3331C6.10917 1.3331 1.33333 6.10893 1.33333 12ZM12.9429 12L16.4715 15.5287C16.732 15.7891 16.732 16.2109 16.4715 16.4713C16.2111 16.7317 15.7893 16.7317 15.5289 16.4713L12.0002 12.9426L8.47155 16.4713C8.21113 16.7317 7.78935 16.7317 7.52893 16.4713C7.26851 16.2109 7.26851 15.7891 7.52893 15.5287L11.0576 12L7.52893 8.47131C7.26851 8.21089 7.26851 7.78911 7.52893 7.52869C7.78935 7.26827 8.21113 7.26827 8.47155 7.52869L12.0002 11.0574L15.5289 7.52869C15.7893 7.26827 16.2111 7.26827 16.4715 7.52869C16.732 7.78911 16.732 8.21089 16.4715 8.47131L12.9429 12Z" fill="#E15C52"/>
</g>
</svg>
